<mxfile host="app.diagrams.net" modified="2024-06-28T15:15:10.895Z" agent="Mozilla/5.0 (X11; Linux x86_64) AppleWebKit/537.36 (KHTML, like Gecko) Chrome/126.0.0.0 Safari/537.36" etag="6hx_oT4_pvqwwKHT0Ujb" version="24.6.4" type="github" pages="2">
  <diagram name="Page-1" id="hhd2j0z-v_9M-bF39ieL">
    <mxGraphModel>
      <root>
        <mxCell id="0" />
        <mxCell id="1" parent="0" />
      </root>
    </mxGraphModel>
  </diagram>
  <diagram id="_Yjd35EpivvzD4kBLQyx" name="Page-2">
    <mxGraphModel dx="1398" dy="820" grid="1" gridSize="10" guides="1" tooltips="1" connect="1" arrows="1" fold="1" page="1" pageScale="1" pageWidth="850" pageHeight="1100" math="0" shadow="0">
      <root>
        <mxCell id="0" />
        <mxCell id="1" parent="0" />
        <mxCell id="0XBOdev6pIBawbCLZk-q-1" value="" style="rounded=0;whiteSpace=wrap;html=1;" vertex="1" parent="1">
          <mxGeometry x="65" y="70" width="575" height="960" as="geometry" />
        </mxCell>
        <mxCell id="0XBOdev6pIBawbCLZk-q-2" value="&lt;h1&gt;&lt;font style=&quot;font-size: 30px;&quot; face=&quot;Comic Sans MS&quot;&gt;Logo&lt;/font&gt;&lt;/h1&gt;" style="rounded=1;whiteSpace=wrap;html=1;arcSize=50;" vertex="1" parent="1">
          <mxGeometry x="100" y="110" width="410" height="60" as="geometry" />
        </mxCell>
        <mxCell id="0XBOdev6pIBawbCLZk-q-3" value="Pay now" style="rounded=1;fillColor=#0057D8;align=center;strokeColor=none;html=1;whiteSpace=wrap;fontColor=#ffffff;fontSize=12;sketch=0;" vertex="1" parent="1">
          <mxGeometry x="395" y="880" width="86" height="33" as="geometry" />
        </mxCell>
        <mxCell id="0XBOdev6pIBawbCLZk-q-4" value="" style="html=1;shadow=0;dashed=0;shape=mxgraph.atlassian.checkbox;fillColor=#008465;strokeColor=none;html=1;sketch=0;" vertex="1" parent="1">
          <mxGeometry x="370" y="889" width="14" height="14" as="geometry" />
        </mxCell>
        <mxCell id="0XBOdev6pIBawbCLZk-q-5" value="" style="shape=image;html=1;verticalAlign=top;verticalLabelPosition=bottom;labelBackgroundColor=#ffffff;imageAspect=0;aspect=fixed;image=https://cdn4.iconfinder.com/data/icons/evil-icons-user-interface/64/menu-128.png" vertex="1" parent="1">
          <mxGeometry x="530" y="101" width="78" height="78" as="geometry" />
        </mxCell>
      </root>
    </mxGraphModel>
  </diagram>
</mxfile>
